<?xml version="1.0" encoding="UTF-8"?>
<svg version="1.1" xmlns="http://www.w3.org/2000/svg" width="781" height="720">
<path d="M0 0 C257.73 0 515.46 0 781 0 C781 237.6 781 475.2 781 720 C523.27 720 265.54 720 0 720 C0 482.4 0 244.8 0 0 Z " fill="#FEFEFE" transform="translate(0,0)"/>
<path d="M0 0 C1.81346924 0.39759521 1.81346924 0.39759521 3.66357422 0.80322266 C14.20917351 3.20026742 24.29310303 6.31800059 34.3125 10.375 C35.07175781 10.68163574 35.83101563 10.98827148 36.61328125 11.30419922 C57.56422246 19.91032477 76.93228504 31.00099185 93.3984375 46.63671875 C95.62729495 48.73112769 97.8797112 50.73338463 100.19921875 52.72265625 C104.30673905 56.29852942 108.05006988 60.13323893 111.75 64.125 C112.39960693 64.82165771 113.04921387 65.51831543 113.71850586 66.23608398 C118.83447772 71.76474721 123.6165764 77.48552915 128.3125 83.375 C130.29265196 85.72643045 132.29911769 88.05186657 134.3125 90.375 C137.97780707 89.77927037 140.89287364 88.75932235 144.19921875 87.08203125 C145.12911621 86.61925781 146.05901367 86.15648438 147.01708984 85.6796875 C148.0014502 85.18726562 148.98581055 84.69484375 150 84.1875 C159.24132145 79.65827232 168.42975274 75.93568038 178.28808594 73.00390625 C179.70268769 72.56444483 181.10670162 72.09006555 182.50097656 71.58984375 C204.27683342 63.78784917 230.86672209 67.42747057 252.3125 74.375 C253.55773437 74.75785156 254.80296875 75.14070313 256.0859375 75.53515625 C269.93493142 80.30536527 282.40897634 88.7414375 293.3125 98.375 C294.01503906 98.94605469 294.71757813 99.51710938 295.44140625 100.10546875 C316.69555319 117.61622386 329.91653533 144.61970423 334.3125 171.375 C334.57160156 172.75522339 334.57160156 172.75522339 334.8359375 174.16333008 C335.61363809 179.40444243 335.49844872 184.64091711 335.49780273 189.9309082 C335.49996743 191.90775708 335.51841427 193.88456647 335.53710938 195.86132812 C335.55522731 207.89767552 334.3901796 219.01625807 329.9375 230.25 C329.59807373 231.12422607 329.25864746 231.99845215 328.90893555 232.89916992 C323.94366317 245.2702352 317.91229589 257.74765795 310.32421875 268.73046875 C308.47331525 271.59970716 308.47331525 271.59970716 308.66796875 274.98828125 C310.77819018 278.05085914 313.13042062 280.81444366 315.625 283.5625 C344.02295549 315.86739669 356.91409841 350.08141505 354.3125 393.375 C353.55158882 400.18129538 352.06973738 406.76496332 350.3125 413.375 C350.02375 414.54675781 349.735 415.71851563 349.4375 416.92578125 C340.71605791 448.81355388 317.08760546 476.40845175 289.3125 493.375 C284.68307483 496.00107981 279.92821027 498.33338103 275.09228516 500.55224609 C273.53137491 501.27381914 271.98855563 502.03426288 270.44921875 502.80078125 C254.78421488 510.12320708 237.93413835 511.84941669 220.875 511.875 C219.81717316 511.88160141 219.81717316 511.88160141 218.73797607 511.88833618 C184.13032891 511.97853637 151.94363507 497.37557801 127.3125 473.375 C110.3125 455.96597744 110.3125 455.96597744 110.3125 450.375 C114.90204904 449.68421269 119.49184426 448.99512953 124.08203125 448.30859375 C128.55931937 447.63885486 133.03563834 446.96291673 137.51171875 446.28515625 C139.94529526 445.91915619 142.37888884 445.55326961 144.8125 445.1875 C145.98723877 445.00864258 147.16197754 444.82978516 148.37231445 444.64550781 C149.47663818 444.48018555 150.58096191 444.31486328 151.71875 444.14453125 C153.19311523 443.92180542 153.19311523 443.92180542 154.69726562 443.69458008 C157.3125 443.375 157.3125 443.375 161.3125 443.375 C157.19817571 435.3883705 151.34455216 431.07610625 143.5 427.125 C142.84878174 426.79588623 142.19756348 426.46677246 141.52661133 426.12768555 C134.07247405 422.53593817 126.80912111 420.42921305 118.5625 419.62109375 C98.32917755 417.53013307 98.32917755 417.53013307 93.546875 411.6796875 C91.2276668 407.95078913 89.63772128 403.99989044 88.19970703 399.86083984 C87.30991016 397.36774359 86.27528408 395.00951583 85.15234375 392.61328125 C82.68865849 387.35468193 80.40750084 382.03257853 78.1953125 376.66357422 C75.20188078 369.40738985 72.02681446 362.24850346 68.77825928 355.10324097 C51.02966289 315.98095374 51.02966289 315.98095374 51.3125 300.375 C75.25319377 293.91205024 99.31212518 288.95216706 123.68774414 284.46411133 C140.93432792 281.28507051 158.1299719 277.88199804 175.3125 274.375 C177.07787109 274.01728516 177.07787109 274.01728516 178.87890625 273.65234375 C190.05188657 271.38667567 201.15770154 269.04077637 212.16796875 266.07421875 C215.0148184 265.44119255 217.41267741 265.22755139 220.3125 265.375 C210.98783658 253.83160638 201.39776326 246.89245844 186.4375 245.25 C182.73256636 244.90439881 179.02446776 244.63311313 175.3125 244.375 C174.19907227 244.29540039 173.08564453 244.21580078 171.93847656 244.13378906 C155.96812401 243.0354801 139.98800801 242.36787158 123.98828125 241.875 C123.31081974 241.85404266 122.63335823 241.83308533 121.93536758 241.81149292 C115.74789631 241.62081014 109.56036487 241.43271044 103.37219238 241.26611328 C84.63740793 240.76148045 65.99839367 239.80688068 47.3125 238.375 C46.25037796 238.29620102 45.18825592 238.21740204 44.09394836 238.13621521 C43.07785995 238.06072952 42.06177155 237.98524384 41.01489258 237.9074707 C39.67229118 237.80798882 39.67229118 237.80798882 38.30256653 237.70649719 C25.81064469 236.69592734 14.38569561 234.73776568 5.3125 225.375 C-5.30780278 212.49875056 -13.03411138 197.40113942 -20.83740234 182.73242188 C-39.93580134 145.11780895 -39.93580134 145.11780895 -72.52734375 119.93359375 C-76.25635103 118.96931158 -79.94578558 118.27570069 -83.6875 119.375 C-86.63823999 121.13424397 -86.63823999 121.13424397 -88.6875 124.375 C-89.38063426 128.0771748 -89.30268971 131.68273546 -89.1875 135.4375 C-89.1565625 136.9994812 -89.1565625 136.9994812 -89.125 138.59301758 C-88.90498996 145.91007034 -88.26133102 152.47988746 -85.6875 159.375 C-85.29232178 160.45031982 -85.29232178 160.45031982 -84.88916016 161.54736328 C-78.43759965 178.91587332 -70.04998889 194.81988771 -60.98217773 210.94165039 C-37.07373813 253.45948505 -37.07373813 253.45948505 -41.88671875 271.109375 C-43.5990611 276.57836598 -46.15022702 281.36132083 -49 286.3125 C-49.99357798 288.07677313 -50.98706843 289.84109557 -51.98046875 291.60546875 C-52.45274902 292.4361084 -52.9250293 293.26674805 -53.41162109 294.12255859 C-54.91245383 296.77213433 -56.36834687 299.44416362 -57.8125 302.125 C-64.58711074 314.52921685 -71.65628685 326.70889654 -78.95996094 338.80981445 C-83.02118756 345.5536629 -86.99412412 352.33840229 -90.875 359.1875 C-98.01912287 371.78948825 -105.45525747 384.21114424 -113.125 396.5 C-123.15153766 412.87875406 -128.33833359 429.95931467 -125.6875 449.375 C-124.73666055 451.59125427 -124.73666055 451.59125427 -123.6875 453.375 C-122.98625 452.66214844 -122.285 451.94929688 -121.5625 451.21484375 C-112.96505413 442.51990735 -112.96505413 442.51990735 -108.9375 439.125 C-100.13084615 431.59467279 -91.82506034 423.11385685 -84.35546875 414.26171875 C-81.43366729 410.95673021 -78.23851575 407.91935695 -75.1015625 404.8203125 C-72.39998706 402.08376521 -69.89671265 399.22520634 -67.3984375 396.3046875 C-64.9405504 393.53254999 -62.29126396 390.96949311 -59.65234375 388.37109375 C-57.76519256 386.45392823 -56.00064625 384.47924678 -54.25 382.4375 C-51.04670142 378.70883127 -47.62089494 375.26560703 -44.09375 371.84375 C-42.12186836 369.82065066 -40.27633099 367.76671288 -38.43359375 365.62890625 C-34.5580834 361.1645264 -30.44025608 356.98012644 -26.25 352.8125 C-25.53779297 352.09642578 -24.82558594 351.38035156 -24.09179688 350.64257812 C-17.70933001 344.27170521 -10.9660153 338.3992781 -4.03515625 332.63671875 C-2.55304616 331.39549527 -2.55304616 331.39549527 -1.6875 329.375 C2.60180196 330.92114373 4.79268404 334.17519947 7.4375 337.6875 C7.92049561 338.3170459 8.40349121 338.9465918 8.90112305 339.59521484 C9.89875735 340.89636353 10.89346074 342.19976456 11.88525391 343.50537109 C13.16217503 345.17808098 14.46056915 346.83434787 15.76171875 348.48828125 C27.43509405 363.36459919 37.89167636 379.04569505 47.87890625 395.08886719 C50.2143825 398.81321998 52.60671499 402.50013967 55 406.1875 C55.66986938 407.22668579 55.66986938 407.22668579 56.35327148 408.28686523 C58.54143354 411.67652864 60.75731565 415.04093183 63.03515625 418.37109375 C63.46159424 419.00490967 63.88803223 419.63872559 64.32739258 420.29174805 C65.12616242 421.47735048 65.9365144 422.6552666 66.76049805 423.82348633 C68.40528106 426.28595932 69.38590764 427.75953423 69.02783203 430.76171875 C68.31885433 433.3517861 67.43854161 435.68660456 66.3515625 438.140625 C65.76761719 439.47673828 65.76761719 439.47673828 65.171875 440.83984375 C64.76453125 441.75894531 64.3571875 442.67804688 63.9375 443.625 C58.26858456 456.44406362 55.14774553 467.30948699 55.0625 481.375 C55.041875 482.22578125 55.02125 483.0765625 55 483.953125 C54.96422866 489.78385291 55.9631115 494.03323246 58.3125 499.375 C62.04106851 495.69423365 65.64044944 491.91801443 69.1875 488.0625 C69.71633789 487.48927002 70.24517578 486.91604004 70.79003906 486.32543945 C73.59450838 483.27637432 76.35903601 480.20200657 79.0625 477.0625 C82.60598052 472.95906206 86.43546655 469.1614015 90.3125 465.375 C94.80559456 472.11464183 95.54772136 480.47228742 96.3125 488.375 C96.6425 488.705 96.9725 489.035 97.3125 489.375 C100.21661069 526.08227986 91.23076284 562.5661492 67.08984375 590.9921875 C64.87209063 593.49524334 62.60669309 595.94201231 60.3125 598.375 C59.71179688 599.04015625 59.11109375 599.7053125 58.4921875 600.390625 C37.27397035 622.98664846 5.36452401 635.6358907 -25.1953125 636.71875 C-38.24891052 636.97159436 -51.05066669 636.95248887 -63.6875 633.375 C-64.37602051 633.18695801 -65.06454102 632.99891602 -65.77392578 632.80517578 C-87.87451091 626.63585855 -106.06259123 615.00695347 -122.6875 599.375 C-123.33976563 598.79878906 -123.99203125 598.22257813 -124.6640625 597.62890625 C-151.28382936 573.03574715 -159.73951085 537.66066625 -161.13085938 502.87695312 C-161.17017578 501.82443359 -161.20949219 500.77191406 -161.25 499.6875 C-161.31477539 498.04491211 -161.31477539 498.04491211 -161.38085938 496.36914062 C-161.48558269 493.70451403 -161.58775779 491.03981689 -161.6875 488.375 C-162.89710586 492.12423608 -164.10553633 495.87384898 -165.31298828 499.6237793 C-165.92031168 501.50914093 -166.5285026 503.39422305 -167.13671875 505.27929688 C-172.34321306 521.2036237 -172.34321306 521.2036237 -176.6875 537.375 C-214.86367662 535.14551805 -252.05625438 517.48246369 -279.6875 491.375 C-281.03758458 490.22435973 -282.39161589 489.0783304 -283.75 487.9375 C-314.13627275 461.18305268 -331.72596162 419.08866627 -335.6875 379.375 C-335.94766599 374.36204737 -335.93654175 369.3477776 -335.89331055 364.32958984 C-335.87467193 362.08550006 -335.87280426 359.84181655 -335.87304688 357.59765625 C-335.83567389 346.67134778 -335.83567389 346.67134778 -334.6875 344.375 C-334.41254755 342.25308432 -334.1682137 340.12718034 -333.9375 338 C-329.18789006 299.50639832 -309.62355897 261.33541806 -279.83984375 236.2109375 C-277.2909794 234.03677009 -274.83802687 231.77087584 -272.375 229.5 C-267.68132202 225.21275782 -262.85711204 221.16837553 -257.90234375 217.1875 C-254.58715842 214.67416486 -254.58715842 214.67416486 -253.30859375 210.92333984 C-253.24800781 209.90449707 -253.18742187 208.8856543 -253.125 207.8359375 C-253.0518457 206.70655762 -252.97869141 205.57717773 -252.90332031 204.41357422 C-252.83209961 203.20459473 -252.76087891 201.99561523 -252.6875 200.75 C-252.51807617 198.26024866 -252.34621545 195.7706619 -252.171875 193.28125 C-252.0471582 191.47914063 -252.0471582 191.47914063 -251.91992188 189.640625 C-248.21910499 137.64259281 -224.05662014 86.77896402 -185.6875 51.375 C-182.97709857 49.05123516 -180.22858212 46.79547858 -177.43359375 44.57421875 C-175.68753249 43.1758795 -173.96746906 41.74394849 -172.28515625 40.26953125 C-151.38284116 22.14098309 -125.88310335 11.29096761 -99.6875 3.375 C-98.94935059 3.14941406 -98.21120117 2.92382812 -97.45068359 2.69140625 C-67.18834866 -6.34521194 -30.66857642 -6.79922732 0 0 Z " fill="#F3C5E0" transform="translate(386.6875,41.625)"/>
<path d="M0 0 C0.33 0 0.66 0 1 0 C1 2.97 1 5.94 1 9 C0.01 8.67 -0.98 8.34 -2 8 C-1.125 2.25 -1.125 2.25 0 0 Z " fill="#FBF3F6" transform="translate(225,528)"/>
</svg>
